<svg width="1280" height="1280" xmlns="http://www.w3.org/2000/svg" xmlns:xlink="http://www.w3.org/1999/xlink" overflow="hidden"><defs><clipPath id="clip0"><path d="M0 0 1280 0 1280 1280 0 1280Z" fill-rule="evenodd" clip-rule="evenodd"/></clipPath></defs><g clip-path="url(#clip0)"><rect x="0" y="0" width="1280" height="1280" fill="transparent"/><path d="M414 76.5C414 53.0279 515.184 34 640 34 764.816 34 866 53.0279 866 76.5 866 99.9721 764.816 119 640 119 515.184 119 414 99.9721 414 76.5Z" fill="#404040" fill-rule="evenodd"/><path d="M576 1202C576 1166.65 604.654 1138 640 1138 675.346 1138 704 1166.65 704 1202 704 1237.35 675.346 1266 640 1266 604.654 1266 576 1237.35 576 1202Z" fill="#404040" fill-rule="evenodd"/><path d="M925.495 0 354.505 0C306.934 0 268 38.8754 268 86.4549L268 1193.51C268 1241.09 306.934 1280 354.505 1280L925.495 1280C973.065 1280 1012 1241.16 1012 1193.55L1012 86.4549C1012 38.8754 973.065 0 925.495 0ZM548.665 62.3177 731.335 62.3177C737.117 62.3177 741.801 66.9989 741.801 72.8137 741.801 78.592 737.117 83.2731 731.335 83.2731L548.665 83.2731C542.883 83.2731 538.2 78.592 538.2 72.8137 538.2 66.9989 542.883 62.3177 548.665 62.3177ZM640 1236.77C616.105 1236.77 596.748 1217.43 596.748 1193.51 596.748 1169.59 616.105 1150.28 640 1150.28 663.895 1150.28 683.252 1169.59 683.252 1193.51 683.252 1217.43 663.895 1236.77 640 1236.77ZM951.805 1120 328.195 1120 328.195 137.106 951.805 137.106 951.805 1120Z" fill="#E6E7E8" fill-rule="evenodd"/><path d="M681.894 321 600.107 321C586.915 321 579 310.5 579 300L579 216C579 202.875 589.553 195 600.107 195L681.894 195C695.085 195 703 205.5 703 216L703 297.375C703 310.5 692.447 321 681.894 321L681.894 321Z" fill="#3083C9" fill-rule="evenodd"/><path d="M493 321 409 321C395.875 321 388 310.5 388 300L388 216C388 202.875 398.5 195 409 195L490.375 195C503.5 195 514 205.5 514 216L514 297.375C514 310.5 503.5 321 493 321L493 321Z" fill="#88C057" fill-rule="evenodd"/><path d="M871.064 321 789.936 321C776.851 321 769 310.5 769 300L769 216C769 202.875 779.468 195 789.936 195L871.064 195C884.149 195 892 205.5 892 216L892 297.375C892 310.5 881.532 321 871.064 321L871.064 321Z" fill="#DC691D" fill-rule="evenodd"/><path d="M681.894 510 600.107 510C586.915 510 579 499.532 579 489.064L579 407.936C579 394.851 589.553 387 600.107 387L681.894 387C695.085 387 703 397.468 703 407.936L703 489.064C703 499.532 692.447 510 681.894 510L681.894 510Z" fill="#EBBA16" fill-rule="evenodd"/><path d="M493 510 409 510C395.875 510 388 499.5 388 489L388 407.625C388 394.5 398.5 384 409 384L490.375 384C503.5 384 514 394.5 514 405L514 489C514 499.5 503.5 510 493 510L493 510Z" fill="#7383BF" fill-rule="evenodd"/><path d="M871.064 510 789.936 510C776.851 510 769 499.532 769 489.064L769 407.936C769 394.851 779.468 387 789.936 387L871.064 387C884.149 387 892 397.468 892 407.936L892 489.064C892 499.532 881.532 510 871.064 510L871.064 510Z" fill="#DD352E" fill-rule="evenodd"/><path d="M681.894 699 600.107 699C586.915 699 579 688.5 579 678L579 594C579 580.875 589.553 573 600.107 573L681.894 573C695.085 573 703 583.5 703 594L703 675.375C703 688.5 692.447 699 681.894 699L681.894 699Z" fill="#A485BE" fill-rule="evenodd"/><path d="M493 699 409 699C395.875 699 388 688.5 388 678L388 594C388 580.875 398.5 573 409 573L490.375 573C503.5 573 514 583.5 514 594L514 675.375C514 688.5 503.5 699 493 699L493 699Z" fill="#EA6248" fill-rule="evenodd"/><path d="M871.064 699 789.936 699C776.851 699 769 688.5 769 678L769 594C769 580.875 779.468 573 789.936 573L871.064 573C884.149 573 892 583.5 892 594L892 675.375C892 688.5 881.532 699 871.064 699L871.064 699Z" fill="#25AE88" fill-rule="evenodd"/></g></svg>