<svg width="1280" height="1280" xmlns="http://www.w3.org/2000/svg" xmlns:xlink="http://www.w3.org/1999/xlink" overflow="hidden"><defs><clipPath id="clip0"><path d="M0 0 1280 0 1280 1280 0 1280Z" fill-rule="evenodd" clip-rule="evenodd"/></clipPath></defs><g clip-path="url(#clip0)"><rect x="0" y="0" width="1280" height="1280" fill="transparent"/><path d="M105.782 1004.39C-1.1024 974.252-18.9717 911.657 29.6724 875.226 80.6329 837.47 130.601 824.222 467.8 704L481.367 827.534 240.132 913.975C199.761 928.547 193.805 949.081 226.234 959.679 258.994 970.277 318.228 967.297 358.599 953.056L486 906.358 467.8 1027.9C460.851 1029.23 453.24 1030.22 445.96 1031.55 337.09 1049.76 220.609 1042.15 105.782 1004.39" fill="#F2D422" fill-rule="evenodd"/><path d="M656 1044.26 1044.62 906.038C1085.04 891.488 1091 870.986 1058.54 860.404 1025.74 849.492 966.433 852.798 926.345 867.348L657.657 961.923 689.131 818.077 703.045 813.448C703.045 813.448 771.294 789.308 867.704 778.726 964.114 768.144 1081.73 780.049 1174.49 815.101 1278.52 847.838 1290.45 896.448 1263.95 929.847 1237.44 963.245 1172.5 987.054 1172.5 987.054L689.462 1160 656 1044.26Z" fill="#4A94CC" fill-rule="evenodd"/><path d="M772.505 197.079C707.23 174.901 592.254 140.144 501.466 120.614 497.158 119.621 468 115.649 468 153.385L468 1089.82 689.006 1160 689.006 341.401C689.006 303.003 706.236 277.515 733.737 286.453 769.854 296.383 776.812 331.802 776.812 370.199L776.812 677.712C776.812 695.918 789.734 702.869 791.722 703.862 922.272 758.479 1023 690.621 1023 521.804 1023 341.07 959.713 261.296 772.505 197.079L772.505 197.079Z" fill="#EA473B" fill-rule="evenodd"/><path d="M468 952 468 913 411 933.822 468 952Z" fill="#29A53D" fill-rule="evenodd"/><path d="M468 743 468 704 410 724.492 468 743Z" fill="#2884BC" fill-rule="evenodd"/><path d="M721.381 1021 690 1032.25 690 1160 910 1080.9 721.381 1021Z" fill="#F2D422" fill-rule="evenodd"/><path d="M710.901 810C705.591 811.655 702.937 812.648 702.937 812.648L689 817.281 689 950 909 872.553 710.901 810Z" fill="#3BBC56" fill-rule="evenodd"/><path d="M1029.44 911 705 1026.89 893.841 1087C1192.48 979.408 1181.9 984.389 1211 968.781L1029.44 911Z" fill="#3BBC56" fill-rule="evenodd"/><path d="M424.649 719C114.575 829.165 128.805 823.541 102 835.12L290.957 895 468 831.812 468 732.895 424.649 719Z" fill="#3BBC56" fill-rule="evenodd"/></g></svg>