<svg width="1280" height="1280" xmlns="http://www.w3.org/2000/svg" xmlns:xlink="http://www.w3.org/1999/xlink" overflow="hidden"><defs><clipPath id="clip0"><path d="M0 0 1280 0 1280 1280 0 1280Z" fill-rule="evenodd" clip-rule="evenodd"/></clipPath></defs><g clip-path="url(#clip0)"><rect x="0" y="0" width="1280" height="1280" fill="transparent"/><path d="M988.5 829C905.626 829 838 761.374 838 678.5 838 595.626 905.626 528 988.5 528 1071.37 528 1139 595.626 1139 678.5 1139 761.374 1071.37 829 988.5 829L988.5 829Z" fill="#E6E7E8" fill-rule="evenodd"/><path d="M990.159 4 702 4 702 1276 990.159 1276C1147.82 1276 1276 1147.81 1276 990.131L1276 289.869C1275.67 132.194 1147.49 4 990.159 4L990.159 4ZM988.834 828.813C906.03 828.813 838.462 761.237 838.462 678.425 838.462 595.613 906.03 528.037 988.834 528.037 1071.64 528.037 1139.21 595.613 1139.21 678.425 1139.21 761.237 1071.64 828.813 988.834 828.813L988.834 828.813Z" fill="#D5011D" fill-rule="evenodd"/><path d="M628 1276 289.986 1276C132.246 1276 4 1147.81 4 990.462L4 289.869C4 132.194 132.246 4 289.655 4L627.669 4 627.669 1276ZM289.655 78.5312C173.007 78.5312 78.5618 173.269 78.5618 289.869L78.5618 990.462C78.5618 1107.06 173.338 1201.8 289.655 1201.8L553.107 1201.8 553.107 78.8625 289.655 78.8625Z" fill="#E6E7E8" fill-rule="evenodd"/><path d="M315.5 528C232.626 528 165 460.599 165 378 165 295.401 232.626 228 315.5 228 398.374 228 466 295.401 466 378 466 460.599 398.374 528 315.5 528L315.5 528Z" fill="#E6E7E8" fill-rule="evenodd"/><path d="M574 1276 263.071 1276C117.97 1276 0 1147.4 0 989.564L0 286.768C0 128.597 117.97 0 262.766 0L573.695 0 573.695 1276ZM262.766 74.7656C155.465 74.7656 68.5873 169.801 68.5873 286.768L68.5873 989.564C68.5873 1106.53 155.769 1201.57 262.766 1201.57L505.108 1201.57 505.108 75.098 262.766 75.098Z" fill="#E6E7E8" fill-rule="evenodd" transform="matrix(-1 -8.74228e-08 -8.74228e-08 1 1276 2)"/></g></svg>