<svg width="1280" height="1280" xmlns="http://www.w3.org/2000/svg" xmlns:xlink="http://www.w3.org/1999/xlink" overflow="hidden"><defs><clipPath id="clip0"><path d="M0 0 1280 0 1280 1280 0 1280Z" fill-rule="evenodd" clip-rule="evenodd"/></clipPath></defs><g clip-path="url(#clip0)"><rect x="0" y="0" width="1280" height="1280" fill="transparent"/><path d="M7 640C7 286.538 290.404 0 640 0 989.596-1.62961e-13 1273 286.538 1273 640 1273 993.462 989.596 1280 640 1280 290.404 1280 7 993.462 7 640Z" fill="#92D050" fill-rule="evenodd"/><path d="M285.113 108.59C284.467 109.087 283.969 109.635 283.372 110.132 287.004 106.302 292.227 102.173 295.66 99.9347 395.855 34.8204 511.622 0 640.075 0 760.219 0 872.752 33.179 968.818 90.8814 975.783 95.0101 994.787 108.043 1004.59 119.882L1004.59 119.932C911.905 17.7585 639.478 236.978 639.478 236.978 545.253 164.353 458.589 114.858 394.064 97.2486 340.136 82.4747 302.824 94.8111 285.113 108.59ZM1109.56 205.192C1106.72 202.058 1103.64 199.123 1100.8 195.89 1077.37 170.173 1048.57 163.955 1022.6 165.646 998.966 173.058 889.766 212.405 755.195 339.45 755.195 339.45 906.681 486.74 999.464 637.314 1092.15 787.888 1147.57 906.227 1113.49 1070.48 1216.92 956.816 1280 805.795 1280 639.95 1280 472.116 1215.38 319.353 1109.56 205.192ZM878.324 701.632C837.231 655.52 776.089 589.461 695.346 509.175 677.685 491.615 659.029 473.31 639.428 454.357 639.428 454.357 609.927 483.855 571.52 522.655L571.52 522.605C522.368 572.249 458.639 637.015 423.267 674.82 360.285 742.024 179.844 953.086 169.695 1071.43 169.695 1071.43 129.547 977.56 217.653 761.076 275.213 619.555 449.137 407.051 521.771 337.808 521.771 337.808 455.405 264.785 372.125 214.345L371.627 214.196C371.627 214.196 370.682 213.449 369.19 212.504 329.141 188.627 285.412 170.222 243.324 167.785 200.34 170.819 173.128 202.257 173.128 202.257 65.7188 316.767 0 470.673 0 640 0 993.428 286.556 1280 640.075 1280 827.679 1280 996.479 1199.12 1113.59 1070.53 1113.54 1070.33 1100.11 985.966 1013.99 864.94 993.742 836.586 919.765 748.093 878.324 701.632Z" fill="#E6E7E8" fill-rule="evenodd"/></g></svg>